<svg width="23" height="23" viewBox="0 0 23 23" fill="none" xmlns="http://www.w3.org/2000/svg">
<g clip-path="url(#clip0_2_1021)">
<path d="M21.0519 12.7517L19.2785 6.3714C18.7587 4.50224 17.6291 2.86047 16.0691 1.70704C14.5091 0.55361 12.6084 -0.0452791 10.669 0.00556898C8.72954 0.0564171 6.86277 0.754084 5.36538 1.98767C3.86799 3.22126 2.82591 4.91998 2.40479 6.8138L1.03185 12.9878C0.880201 13.67 0.883707 14.3776 1.04211 15.0582C1.20052 15.7389 1.50978 16.3753 1.94706 16.9204C2.38435 17.4656 2.93849 17.9056 3.56857 18.2079C4.19866 18.5102 4.8886 18.6672 5.58745 18.6671H6.62719C6.8414 19.7221 7.41374 20.6705 8.24721 21.3518C9.08069 22.033 10.1241 22.4051 11.2005 22.4051C12.277 22.4051 13.3204 22.033 14.1538 21.3518C14.9873 20.6705 15.5596 19.7221 15.7739 18.6671H16.556C17.2754 18.6672 17.9851 18.5009 18.6296 18.1813C19.2742 17.8616 19.836 17.3973 20.2714 16.8246C20.7068 16.2519 21.0039 15.5862 21.1394 14.8797C21.275 14.1732 21.2453 13.4449 21.0528 12.7517H21.0519ZM11.2005 20.5338C10.6235 20.5314 10.0613 20.3508 9.5908 20.0167C9.12034 19.6825 8.7646 19.2112 8.57225 18.6671H13.8288C13.6364 19.2112 13.2807 19.6825 12.8102 20.0167C12.3398 20.3508 11.7776 20.5314 11.2005 20.5338V20.5338ZM18.7848 15.6945C18.5247 16.0395 18.1878 16.3191 17.8007 16.5111C17.4136 16.7031 16.9871 16.8022 16.5551 16.8005H5.58745C5.16819 16.8004 4.75429 16.7062 4.37631 16.5247C3.99832 16.3433 3.66591 16.0793 3.4036 15.7522C3.1413 15.4252 2.95579 15.0433 2.86078 14.635C2.76577 14.2266 2.76367 13.8021 2.85465 13.3929L4.22665 7.21793C4.55738 5.73039 5.37587 4.3961 6.55201 3.42715C7.72815 2.45821 9.19444 1.91023 10.7178 1.87032C12.2411 1.83041 13.7341 2.30087 14.9593 3.2069C16.1846 4.11294 17.0718 5.40255 17.48 6.87073L19.2533 13.251C19.3705 13.6667 19.3892 14.104 19.3078 14.5281C19.2265 14.9523 19.0474 15.3516 18.7848 15.6945V15.6945Z" fill="#0E2954"/>
</g>
<defs>
<clipPath id="clip0_2_1021">
<rect width="22.4" height="22.4" fill="white"/>
</clipPath>
</defs>
</svg>
